<svg xmlns="http://www.w3.org/2000/svg" viewBox="0 0 1265.54 215.84"><g id="レイヤー_2" data-name="レイヤー 2"><g id="_04" data-name=" 04"><path id="window" d="M1228,0H37.53A37.58,37.58,0,0,0,0,37.52v140.8a37.58,37.58,0,0,0,37.53,37.52H1228a37.58,37.58,0,0,0,37.53-37.52V37.52A37.58,37.58,0,0,0,1228,0ZM89.33,167.55H66.67V48.37H89.33Zm66.6,0c-16.9,0-29.45-7-39.91-22.13l14.64-14.12c5.23,9.94,13.94,15.51,24.4,15.51S173,140,173,130.43a13.83,13.83,0,0,0-6.24-11.68c-2.27-1.57-6.8-3.48-16.21-7-20.91-7.67-28.58-16-28.58-31.37,0-19.52,15.33-33.81,36.25-33.81a50.9,50.9,0,0,1,34.16,12.9L180.54,75c-6.1-6.8-11.51-9.41-18.83-9.41-9.23,0-16.38,5.75-16.38,12.89,0,6.28,4,9.59,17.6,14.64,12.73,4.71,18,7.15,23.18,11.68,6.8,5.75,10.29,14.12,10.29,24.4C196.37,152,180,167.55,155.93,167.55ZM311.47,119.8c0,13.59-2.61,23.18-8.54,31-8,10.46-22.31,16.73-38.17,16.73s-30.15-6.27-38.16-16.73c-5.93-7.84-8.54-17.43-8.54-31V48.37h22.65v66.9c0,11.85.7,15.68,3.66,20.74,3.84,6.62,11.68,10.8,20.39,10.8s16.56-4.18,20.4-10.8c3-5.06,3.66-8.89,3.66-20.74V48.37h22.65Zm935.3,58.52A18.77,18.77,0,0,1,1228,197.08H364.13V18.76H1228a18.77,18.77,0,0,1,18.76,18.76Z"/><g id="Text"><rect x="689.28" y="124.29" width="6.53" height="35.1"/><rect x="702.96" y="141.83" width="6.53" height="17.55"/><path d="M487.92,76.74c-4.73-5.34-7.17-7.32-11.9-9.92a46.71,46.71,0,0,0-22.43-6.1c-24.72,0-45.78,21.51-45.78,46.54a43.8,43.8,0,0,0,15.87,34c8.85,7.48,19.68,11.75,29.91,11.75a50,50,0,0,0,25.48-7.78c3.2-1.83,5-3.51,8.85-7.47v8.85c-11.14,8.85-21.52,12.66-33.88,12.66-28.84,0-53.1-24-53.1-52.34s24.11-52.49,52.8-52.49c13,0,23.5,4.12,34.18,13.13Z"/><path d="M609.49,106.8c0,28.84-24,52.49-53.1,52.49-28.68,0-52.33-24.11-52.33-53.25,0-27.62,24.41-51.58,52.64-51.58C585.54,54.46,609.49,78.27,609.49,106.8Zm-98.57-.61c0,13.73,5,25.48,14.8,34.48,8.55,7.79,19.84,12.36,30.67,12.36a46.3,46.3,0,0,0,46.24-46.23c0-25.18-20.75-46.08-45.93-46.08-24.72,0-45.78,20.9-45.78,45.47Z"/><path d="M748.84,54.16h20.81c16.39,0,28.37,4.57,38.46,14.5a54.42,54.42,0,0,1,0,76c-10.09,10.09-22.23,14.66-38.46,14.66H748.84ZM769.49,153c13.4,0,24.12-4,32.79-12.14,9.14-8.51,14.18-20.81,14.18-34.2,0-27.12-19.54-46.19-47-46.19H755.59V153Z"/><path d="M850.63,159.29h-6.78V54.16h6.78Z"/><path d="M1084.5,106.8c0,29.1-24.18,53-53.58,53-29,0-52.81-24.33-52.81-53.74,0-27.87,24.63-52,53.12-52C1060.32,54,1084.5,78,1084.5,106.8ZM985,106.19C985,120,990.12,131.9,1000,141c8.62,7.85,20,12.47,31,12.47a46.72,46.72,0,0,0,46.65-46.65c0-25.4-20.94-46.5-46.34-46.5C1006.28,60.3,985,81.4,985,106.19Z"/><path d="M902.27,159.29h-6.56V60.57H869.62V54.46h59.2v6.11H902.27Z"/><path d="M954.48,159.29h-6.56V54.16h6.56Z"/><path d="M1103.7,53.38l86.22,90.22V54.45h6.62V159.77l-86.22-90.23v87.61h-6.62Z"/><rect x="628.25" y="54.09" width="6.53" height="105.29"/><rect x="644.82" y="71.64" width="6.53" height="87.74"/><rect x="660.21" y="89.19" width="6.53" height="70.2"/><rect x="674.75" y="106.74" width="6.53" height="52.65"/><rect x="716.63" y="54.09" width="6.53" height="105.29"/></g></g></g></svg>